<svg id="svg" version="1.1" xmlns="http://www.w3.org/2000/svg" xmlns:xlink="http://www.w3.org/1999/xlink" width="400" height="117.09658068386322" viewBox="0, 0, 400,117.09658068386322"><g id="svgg"><path id="path0" d="M178.774 14.083 C 178.636 14.221,178.443 14.333,178.345 14.333 C 178.247 14.333,178.167 14.403,178.167 14.488 C 178.167 14.573,178.035 14.774,177.875 14.934 C 177.607 15.203,177.580 15.870,177.537 23.310 C 177.505 28.855,177.433 31.463,177.308 31.614 C 177.166 31.785,176.180 31.833,172.813 31.833 L 168.500 31.833 168.500 38.667 L 168.500 45.500 172.992 45.500 L 177.484 45.500 177.534 59.391 C 177.569 69.276,177.637 73.350,177.769 73.516 C 177.871 73.645,178.005 74.078,178.066 74.479 C 178.127 74.880,178.325 75.532,178.505 75.928 C 178.686 76.324,178.833 76.727,178.833 76.824 C 178.833 76.921,178.908 77.000,179.000 77.000 C 179.092 77.000,179.167 77.097,179.167 77.216 C 179.167 77.994,182.395 80.967,183.558 81.258 C 183.801 81.320,184.000 81.436,184.000 81.518 C 184.000 81.600,184.120 81.667,184.266 81.667 C 184.413 81.667,184.769 81.775,185.058 81.908 C 185.631 82.172,186.773 82.426,188.583 82.692 C 189.996 82.900,195.310 82.780,195.761 82.529 C 195.938 82.430,196.515 82.303,197.042 82.246 C 197.569 82.189,198.000 82.083,198.000 82.009 C 198.000 81.936,198.375 81.827,198.833 81.766 C 199.292 81.705,199.667 81.592,199.667 81.516 C 199.667 81.439,199.976 81.326,200.354 81.266 C 200.975 81.167,201.449 80.990,203.109 80.238 C 203.397 80.107,203.716 80.000,203.817 80.000 C 203.918 80.000,204.000 79.925,204.000 79.833 C 204.000 79.742,204.107 79.667,204.238 79.667 C 204.369 79.667,204.575 79.572,204.696 79.456 C 204.818 79.341,205.104 79.152,205.333 79.038 C 205.563 78.923,205.975 78.681,206.250 78.500 C 206.525 78.319,206.921 78.082,207.129 77.973 C 207.706 77.673,207.853 75.738,207.324 75.411 C 207.237 75.357,207.164 75.187,207.161 75.032 C 207.158 74.877,207.010 74.450,206.833 74.083 C 206.656 73.717,206.509 73.285,206.506 73.125 C 206.503 72.965,206.425 72.833,206.333 72.833 C 206.242 72.833,206.167 72.702,206.168 72.542 C 206.170 72.209,205.303 69.627,205.147 69.500 C 205.091 69.454,204.993 69.251,204.930 69.047 C 204.649 68.147,202.687 68.338,200.417 69.485 C 199.500 69.949,198.656 70.329,198.542 70.331 C 198.427 70.332,198.333 70.400,198.333 70.481 C 198.333 70.563,198.071 70.679,197.750 70.739 C 197.429 70.799,197.167 70.910,197.167 70.985 C 197.167 71.129,195.065 71.637,193.872 71.781 C 192.622 71.932,191.008 70.871,190.732 69.715 C 190.671 69.459,190.565 69.175,190.497 69.083 C 190.429 68.992,190.318 63.648,190.252 57.208 L 190.131 45.500 197.706 45.500 L 205.281 45.500 205.391 42.974 C 205.530 39.760,205.530 36.442,205.391 33.860 L 205.282 31.833 197.826 31.833 C 191.180 31.833,190.358 31.805,190.268 31.570 C 190.212 31.425,190.167 27.830,190.167 23.581 C 190.167 15.254,190.171 15.300,189.245 14.401 L 188.661 13.833 183.842 13.833 C 179.781 13.833,178.985 13.873,178.774 14.083 " stroke="none" fill="#fc6c6c" fill-rule="evenodd"></path><path id="path1" d="M138.926 31.682 C 138.978 31.765,138.659 31.836,138.218 31.840 C 137.045 31.850,133.333 32.607,133.333 32.836 C 133.333 32.906,132.996 33.013,132.583 33.075 C 132.171 33.136,131.833 33.254,131.833 33.336 C 131.833 33.418,131.571 33.534,131.251 33.594 C 130.931 33.654,130.711 33.770,130.761 33.852 C 130.812 33.933,130.728 34.000,130.576 34.000 C 130.290 34.000,128.653 34.769,128.502 34.975 C 128.455 35.038,128.229 35.182,128.000 35.294 C 127.451 35.562,127.009 35.851,126.603 36.208 C 126.420 36.369,126.180 36.500,126.070 36.500 C 125.959 36.500,125.826 36.612,125.773 36.750 C 125.720 36.887,125.607 37.000,125.521 37.000 C 125.240 37.000,122.434 39.656,121.453 40.852 C 121.198 41.162,120.844 41.594,120.666 41.811 C 120.489 42.029,120.298 42.347,120.244 42.520 C 120.189 42.692,120.074 42.833,119.989 42.833 C 119.903 42.833,119.833 42.948,119.833 43.089 C 119.833 43.229,119.725 43.385,119.594 43.436 C 119.462 43.486,119.306 43.747,119.247 44.014 C 119.188 44.281,119.071 44.500,118.987 44.500 C 118.902 44.500,118.833 44.601,118.833 44.725 C 118.833 44.849,118.659 45.280,118.445 45.684 C 118.231 46.087,117.916 46.792,117.743 47.250 C 117.571 47.708,117.333 48.271,117.216 48.500 C 117.098 48.729,117.002 49.033,117.001 49.175 C 117.000 49.317,116.933 49.505,116.851 49.592 C 116.669 49.786,116.333 51.341,116.333 51.994 C 116.333 52.257,116.240 52.503,116.125 52.542 C 115.851 52.633,115.820 61.780,116.093 61.964 C 116.190 62.030,116.361 62.681,116.472 63.412 C 116.583 64.143,116.747 64.814,116.837 64.904 C 116.927 64.993,117.000 65.192,117.000 65.345 C 117.000 65.599,117.281 66.331,117.930 67.775 C 118.060 68.064,118.167 68.383,118.167 68.484 C 118.167 68.584,118.234 68.667,118.315 68.667 C 118.397 68.667,118.512 68.859,118.571 69.093 C 118.630 69.328,118.938 69.889,119.256 70.341 C 119.573 70.793,119.833 71.239,119.833 71.332 C 119.833 71.424,119.908 71.500,120.000 71.500 C 120.092 71.500,120.167 71.598,120.167 71.719 C 120.167 71.839,120.317 72.098,120.500 72.295 C 120.683 72.492,120.833 72.705,120.833 72.768 C 120.833 72.831,121.077 73.125,121.375 73.421 C 121.673 73.717,122.067 74.170,122.250 74.427 C 122.627 74.955,124.327 76.613,125.083 77.190 C 125.358 77.400,125.643 77.668,125.717 77.786 C 125.790 77.904,125.924 78.000,126.015 78.000 C 126.106 78.000,126.342 78.150,126.538 78.333 C 126.735 78.517,126.995 78.667,127.115 78.667 C 127.235 78.667,127.333 78.742,127.333 78.833 C 127.333 78.925,127.442 79.000,127.575 79.000 C 127.708 79.000,127.877 79.094,127.950 79.208 C 128.023 79.323,128.308 79.533,128.583 79.675 C 128.858 79.818,129.383 80.095,129.750 80.292 C 130.757 80.832,131.951 81.333,132.231 81.333 C 132.368 81.333,132.521 81.400,132.572 81.481 C 132.622 81.562,132.936 81.680,133.269 81.743 C 133.602 81.805,133.996 81.923,134.146 82.005 C 134.295 82.086,134.792 82.235,135.250 82.336 C 135.708 82.436,136.421 82.604,136.833 82.708 C 137.909 82.980,145.851 82.964,146.833 82.688 C 147.246 82.573,147.958 82.401,148.417 82.307 C 148.875 82.214,149.325 82.079,149.417 82.009 C 149.508 81.938,149.827 81.834,150.124 81.778 C 151.294 81.556,151.553 81.222,151.435 80.093 C 151.377 79.537,151.256 79.058,151.165 79.028 C 151.074 78.997,151.000 78.845,151.000 78.690 C 151.000 78.535,150.898 78.260,150.774 78.079 C 150.649 77.898,150.454 77.356,150.340 76.874 C 150.226 76.393,150.066 75.957,149.983 75.906 C 149.901 75.855,149.833 75.687,149.832 75.532 C 149.832 75.377,149.726 75.049,149.598 74.803 C 149.470 74.557,149.311 74.110,149.245 73.810 C 148.954 72.484,147.868 70.932,147.098 70.739 C 146.861 70.679,146.667 70.564,146.667 70.482 C 146.667 70.400,146.404 70.333,146.083 70.333 C 145.762 70.333,145.500 70.401,145.500 70.484 C 145.500 70.566,145.050 70.686,144.500 70.750 C 143.950 70.814,143.458 70.934,143.407 71.016 C 143.288 71.208,140.000 71.215,140.000 71.023 C 140.000 70.944,139.631 70.836,139.179 70.783 C 138.728 70.729,138.222 70.609,138.054 70.515 C 137.887 70.422,137.375 70.184,136.917 69.987 C 134.828 69.089,131.167 65.941,131.167 65.042 C 131.167 64.947,131.054 64.826,130.917 64.773 C 130.779 64.720,130.667 64.569,130.667 64.436 C 130.667 64.303,130.610 64.169,130.542 64.139 C 130.395 64.074,129.740 62.752,129.585 62.208 C 129.526 62.002,129.417 61.833,129.343 61.833 C 129.270 61.833,129.159 61.518,129.097 61.133 C 129.036 60.748,128.910 60.342,128.818 60.231 C 128.287 59.592,128.298 53.167,128.829 53.167 C 128.900 53.167,129.005 52.867,129.064 52.500 C 129.123 52.133,129.243 51.833,129.332 51.833 C 129.421 51.833,129.541 51.646,129.598 51.417 C 129.656 51.188,129.770 51.000,129.851 51.000 C 129.933 51.000,130.000 50.914,130.000 50.809 C 130.000 50.264,132.856 46.833,133.310 46.833 C 133.432 46.833,133.684 46.650,134.451 46.003 C 134.562 45.910,134.700 45.833,134.759 45.833 C 134.817 45.833,135.069 45.688,135.318 45.511 C 135.567 45.334,135.972 45.138,136.218 45.076 C 136.465 45.014,136.667 44.905,136.667 44.834 C 136.667 44.762,136.948 44.651,137.292 44.587 C 137.635 44.523,138.000 44.402,138.101 44.318 C 138.858 43.692,144.217 43.795,146.083 44.471 C 147.209 44.879,149.199 45.844,149.470 46.114 C 149.591 46.235,149.759 46.333,149.844 46.333 C 149.928 46.333,150.204 46.543,150.457 46.800 C 150.710 47.056,151.122 47.423,151.374 47.614 C 151.907 48.021,153.667 50.226,153.667 50.488 C 153.667 50.586,153.742 50.667,153.833 50.667 C 153.925 50.667,154.000 50.745,154.000 50.841 C 154.000 50.937,154.150 51.327,154.333 51.706 C 154.517 52.085,154.667 52.476,154.668 52.573 C 154.668 52.670,154.783 52.970,154.923 53.238 C 155.063 53.507,155.224 54.163,155.279 54.697 C 155.335 55.230,155.444 55.667,155.521 55.667 C 155.598 55.667,155.681 61.310,155.705 68.208 L 155.750 80.750 156.236 81.292 C 156.503 81.590,156.816 81.833,156.930 81.833 C 157.045 81.833,157.170 81.927,157.208 82.042 C 157.262 82.202,158.376 82.250,162.029 82.250 L 166.780 82.250 167.535 81.632 C 168.570 80.783,168.500 82.661,168.500 55.896 L 168.500 31.833 156.000 31.833 C 147.477 31.833,143.500 31.778,143.500 31.660 C 143.500 31.548,142.681 31.495,141.167 31.510 C 139.823 31.522,138.873 31.596,138.926 31.682 " stroke="none" fill="#3ca4ac" fill-rule="evenodd"></path><path id="path2" d="M237.994 6.894 C 237.947 6.942,237.252 6.996,236.450 7.013 C 235.648 7.031,234.958 7.100,234.916 7.168 C 234.875 7.235,234.165 7.343,233.339 7.407 C 232.513 7.472,231.800 7.585,231.754 7.660 C 231.709 7.734,231.258 7.846,230.752 7.909 C 230.247 7.972,229.833 8.085,229.833 8.160 C 229.833 8.234,229.496 8.346,229.083 8.408 C 228.671 8.470,228.333 8.582,228.333 8.658 C 228.333 8.734,228.052 8.848,227.708 8.911 C 227.099 9.022,225.668 9.638,225.498 9.862 C 225.452 9.923,225.208 10.025,224.957 10.088 C 224.705 10.151,224.500 10.256,224.500 10.320 C 224.500 10.385,224.237 10.541,223.917 10.667 C 223.596 10.793,223.333 10.957,223.333 11.031 C 223.333 11.106,223.232 11.167,223.109 11.167 C 222.985 11.167,222.730 11.298,222.541 11.458 C 222.352 11.619,222.034 11.862,221.833 12.000 C 221.633 12.137,221.331 12.367,221.162 12.510 C 220.993 12.654,220.652 12.916,220.406 13.094 C 219.772 13.549,217.835 15.542,217.826 15.746 C 217.822 15.840,217.597 16.101,217.326 16.326 C 217.055 16.550,216.833 16.824,216.833 16.933 C 216.833 17.042,216.721 17.174,216.583 17.227 C 216.446 17.280,216.333 17.438,216.333 17.578 C 216.333 17.718,216.267 17.833,216.187 17.833 C 216.106 17.833,215.947 18.058,215.833 18.333 C 215.719 18.608,215.568 18.833,215.498 18.833 C 215.427 18.833,215.318 19.039,215.255 19.290 C 215.192 19.541,215.090 19.785,215.028 19.832 C 214.782 20.021,214.187 21.306,214.078 21.884 C 214.015 22.223,213.903 22.500,213.829 22.500 C 213.756 22.500,213.645 22.800,213.583 23.167 C 213.521 23.533,213.408 23.833,213.331 23.833 C 213.254 23.833,213.138 24.265,213.073 24.792 C 213.008 25.319,212.892 25.791,212.814 25.841 C 212.737 25.891,212.623 26.587,212.562 27.388 C 212.500 28.189,212.386 28.884,212.308 28.932 C 212.230 28.980,212.167 29.653,212.167 30.427 L 212.167 31.833 208.792 31.833 L 205.417 31.833 205.415 38.667 L 205.413 45.500 208.790 45.500 L 212.167 45.500 212.167 62.907 C 212.167 74.332,212.224 80.349,212.333 80.417 C 212.425 80.473,212.500 80.636,212.500 80.778 C 212.500 81.084,213.166 81.826,213.444 81.830 C 213.551 81.832,213.670 81.927,213.708 82.042 C 213.836 82.424,223.124 82.332,223.846 81.942 C 225.196 81.212,225.078 82.949,225.127 63.125 L 225.171 45.500 230.544 45.497 C 233.499 45.496,235.997 45.440,236.094 45.372 C 236.192 45.305,236.656 44.612,237.126 43.833 C 240.950 37.492,246.923 33.640,255.333 32.095 C 256.437 31.892,254.746 31.863,240.875 31.849 L 225.167 31.833 225.167 30.581 C 225.167 29.892,225.235 29.199,225.318 29.039 C 225.402 28.880,225.548 28.184,225.644 27.492 C 225.740 26.800,225.934 26.012,226.075 25.742 C 226.216 25.471,226.332 25.157,226.332 25.044 C 226.333 24.931,226.558 24.473,226.833 24.026 C 227.108 23.579,227.333 23.165,227.333 23.107 C 227.333 22.658,229.916 20.272,231.053 19.670 C 231.482 19.443,231.833 19.209,231.833 19.150 C 231.833 19.091,232.133 18.995,232.500 18.936 C 232.867 18.877,233.167 18.763,233.167 18.682 C 233.167 18.601,233.823 18.446,234.625 18.338 C 235.427 18.229,236.214 18.071,236.373 17.987 C 236.723 17.801,240.167 17.779,240.167 17.963 C 240.167 18.034,240.817 18.181,241.611 18.290 C 242.405 18.398,243.099 18.556,243.153 18.640 C 243.206 18.724,243.569 18.846,243.958 18.911 C 244.348 18.976,244.667 19.098,244.667 19.181 C 244.667 19.265,245.229 19.333,245.917 19.333 C 246.639 19.333,247.167 19.263,247.167 19.167 C 247.167 19.075,247.268 19.000,247.392 19.000 C 247.687 19.000,248.361 18.361,248.624 17.833 C 248.868 17.343,249.212 16.784,249.343 16.667 C 249.394 16.621,249.534 16.340,249.655 16.042 C 249.775 15.744,249.934 15.500,250.007 15.500 C 250.080 15.500,250.190 15.275,250.250 15.000 C 250.310 14.725,250.412 14.500,250.475 14.500 C 250.538 14.500,250.776 14.144,251.003 13.708 C 251.231 13.273,251.462 12.879,251.517 12.833 C 251.728 12.657,252.000 12.007,252.000 11.678 C 252.000 11.488,252.075 11.333,252.167 11.333 C 252.258 11.333,252.333 11.183,252.333 11.000 C 252.333 10.817,252.258 10.667,252.167 10.667 C 252.075 10.667,252.000 10.547,252.000 10.401 C 252.000 10.255,251.850 10.096,251.667 10.048 C 251.483 10.000,251.333 9.901,251.333 9.827 C 251.333 9.753,251.108 9.644,250.833 9.583 C 250.558 9.523,250.333 9.412,250.333 9.337 C 250.333 9.261,249.958 9.110,249.500 9.000 C 249.042 8.890,248.667 8.739,248.667 8.665 C 248.667 8.590,248.367 8.479,248.000 8.417 C 247.633 8.355,247.333 8.244,247.333 8.171 C 247.333 8.098,246.977 7.985,246.542 7.920 C 246.106 7.855,245.671 7.737,245.574 7.658 C 245.478 7.578,244.878 7.443,244.241 7.357 C 243.604 7.271,242.933 7.165,242.750 7.121 C 242.222 6.995,238.091 6.798,237.994 6.894 " stroke="none" fill="#345cbb" fill-rule="evenodd"></path><path id="path3" d="M255.167 32.171 C 251.692 32.808,250.499 33.170,247.742 34.421 C 243.369 36.406,239.146 40.226,236.939 44.193 C 236.600 44.803,236.212 45.344,236.078 45.396 C 235.943 45.447,235.833 45.604,235.833 45.745 C 235.833 45.885,235.767 46.000,235.685 46.000 C 235.604 46.000,235.488 46.262,235.428 46.583 C 235.367 46.904,235.250 47.167,235.167 47.167 C 235.083 47.167,234.966 47.429,234.906 47.750 C 234.845 48.071,234.734 48.333,234.658 48.333 C 234.582 48.333,234.470 48.671,234.408 49.083 C 234.346 49.496,234.236 49.833,234.163 49.833 C 234.090 49.833,233.944 50.377,233.839 51.042 C 233.733 51.706,233.558 52.430,233.449 52.651 C 233.189 53.173,233.166 61.954,233.423 62.131 C 233.518 62.197,233.689 62.807,233.802 63.489 C 233.916 64.170,234.072 64.807,234.150 64.905 C 234.227 65.003,234.341 65.365,234.402 65.708 C 234.464 66.052,234.578 66.333,234.656 66.333 C 234.733 66.333,234.845 66.596,234.906 66.917 C 234.966 67.237,235.087 67.500,235.174 67.500 C 235.262 67.500,235.333 67.613,235.333 67.751 C 235.333 67.976,236.125 69.625,236.333 69.833 C 236.379 69.879,236.567 70.211,236.750 70.571 C 236.933 70.931,237.158 71.306,237.250 71.404 C 237.342 71.503,237.627 71.893,237.883 72.271 C 238.140 72.649,238.552 73.186,238.800 73.464 C 239.047 73.743,239.662 74.456,240.167 75.050 C 240.671 75.643,241.271 76.243,241.501 76.383 C 241.731 76.523,242.196 76.907,242.535 77.236 C 242.873 77.564,243.225 77.833,243.317 77.833 C 243.408 77.833,243.543 77.927,243.617 78.042 C 243.790 78.312,244.772 79.000,244.985 79.000 C 245.076 79.000,245.210 79.094,245.283 79.208 C 245.357 79.323,245.679 79.559,246.000 79.733 C 247.963 80.799,249.085 81.333,249.356 81.333 C 249.527 81.333,249.667 81.402,249.667 81.485 C 249.667 81.569,249.966 81.688,250.332 81.750 C 250.699 81.812,251.037 81.924,251.083 82.000 C 251.130 82.076,251.487 82.190,251.876 82.254 C 252.265 82.319,252.658 82.428,252.750 82.497 C 252.961 82.656,255.299 83.000,256.173 83.000 C 256.536 83.000,256.833 83.075,256.833 83.167 C 256.833 83.270,257.778 83.333,259.333 83.333 C 260.889 83.333,261.833 83.270,261.833 83.167 C 261.833 83.075,262.168 83.000,262.577 83.000 C 263.591 83.000,265.880 82.659,266.075 82.480 C 266.162 82.399,266.420 82.333,266.648 82.333 C 267.726 82.333,268.823 80.426,268.028 79.934 C 267.952 79.887,267.797 79.434,267.684 78.927 C 267.570 78.420,267.416 77.968,267.341 77.921 C 267.266 77.875,267.155 77.574,267.095 77.252 C 267.034 76.930,266.922 76.667,266.845 76.667 C 266.768 76.667,266.654 76.329,266.592 75.917 C 266.530 75.504,266.409 75.167,266.323 75.167 C 266.237 75.167,266.164 75.035,266.161 74.875 C 266.158 74.715,266.010 74.283,265.833 73.917 C 265.656 73.550,265.509 73.109,265.506 72.936 C 265.479 71.454,261.870 69.862,261.156 71.018 C 260.972 71.315,255.394 71.362,255.202 71.067 C 255.137 70.967,254.789 70.838,254.430 70.782 C 254.071 70.725,253.733 70.610,253.680 70.527 C 253.627 70.443,253.340 70.322,253.042 70.258 C 252.744 70.193,252.500 70.088,252.500 70.023 C 252.500 69.959,252.294 69.814,252.042 69.701 C 251.401 69.415,250.888 69.101,250.530 68.777 C 250.361 68.625,250.185 68.500,250.138 68.500 C 249.728 68.500,246.833 65.026,246.833 64.534 C 246.833 64.424,246.758 64.333,246.667 64.333 C 246.575 64.333,246.500 64.226,246.500 64.095 C 246.500 63.964,246.402 63.758,246.282 63.637 C 246.003 63.355,245.165 60.726,245.166 60.135 C 245.166 59.888,245.092 59.640,245.000 59.583 C 244.794 59.456,244.776 56.055,244.981 55.929 C 245.061 55.879,245.179 55.425,245.242 54.921 C 245.305 54.418,245.419 53.967,245.495 53.920 C 245.571 53.873,245.723 53.459,245.833 53.001 C 245.943 52.542,246.101 52.167,246.183 52.167 C 246.266 52.167,246.333 52.066,246.333 51.943 C 246.333 51.326,249.299 47.850,250.551 47.000 C 250.888 46.771,251.165 46.527,251.166 46.458 C 251.166 46.390,251.268 46.333,251.391 46.333 C 251.515 46.333,251.789 46.183,252.000 46.000 C 252.211 45.817,252.467 45.664,252.567 45.661 C 252.668 45.658,253.050 45.510,253.417 45.333 C 253.783 45.156,254.210 45.009,254.365 45.006 C 254.520 45.003,254.691 44.928,254.745 44.841 C 254.799 44.754,255.293 44.631,255.842 44.569 C 256.391 44.507,256.881 44.391,256.930 44.311 C 257.047 44.122,260.667 44.122,260.667 44.312 C 260.667 44.392,261.117 44.508,261.667 44.570 C 262.217 44.632,262.667 44.754,262.667 44.842 C 262.667 44.929,262.784 45.000,262.927 45.000 C 263.071 45.000,263.598 45.188,264.099 45.417 C 264.600 45.646,265.083 45.833,265.172 45.833 C 265.261 45.833,265.333 45.908,265.333 46.000 C 265.333 46.092,265.411 46.167,265.507 46.167 C 265.952 46.167,269.833 49.594,269.833 49.987 C 269.833 50.100,269.973 50.291,270.643 51.096 C 270.725 51.195,270.849 51.457,270.919 51.679 C 270.988 51.902,271.092 52.121,271.149 52.167 C 271.345 52.324,272.014 54.124,272.116 54.770 C 272.172 55.126,272.300 55.470,272.401 55.536 C 272.625 55.682,272.555 85.640,272.329 86.417 C 272.249 86.692,272.112 87.479,272.025 88.167 C 271.853 89.529,271.353 91.533,271.152 91.668 C 271.083 91.715,270.975 91.959,270.912 92.210 C 270.849 92.461,270.730 92.667,270.649 92.667 C 270.567 92.667,270.500 92.736,270.500 92.822 C 270.500 93.647,267.033 97.167,266.220 97.167 C 266.099 97.167,266.000 97.236,266.000 97.320 C 266.000 97.404,265.775 97.523,265.500 97.583 C 265.225 97.644,265.000 97.754,265.000 97.828 C 265.000 97.902,264.719 98.016,264.375 98.080 C 264.032 98.145,263.710 98.263,263.660 98.344 C 263.325 98.886,255.311 98.878,254.768 98.334 C 254.676 98.242,254.484 98.164,254.342 98.161 C 254.200 98.158,253.783 98.010,253.417 97.833 C 253.050 97.656,252.656 97.509,252.542 97.506 C 252.427 97.503,252.333 97.434,252.333 97.353 C 252.333 97.272,252.202 97.159,252.042 97.101 C 251.167 96.788,249.778 95.736,248.303 94.270 L 247.150 93.124 245.950 93.210 C 244.893 93.285,244.343 93.450,243.312 93.999 C 243.163 94.079,242.769 94.195,242.437 94.257 C 242.105 94.319,241.833 94.427,241.833 94.496 C 241.833 94.565,241.383 94.717,240.833 94.833 C 240.283 94.950,239.833 95.101,239.833 95.168 C 239.833 95.235,239.458 95.340,239.000 95.401 C 238.542 95.462,238.167 95.584,238.167 95.672 C 238.167 95.761,238.022 95.833,237.845 95.833 C 236.920 95.833,236.762 96.972,237.510 98.250 C 237.778 98.708,238.071 99.252,238.161 99.458 C 238.251 99.665,238.402 99.833,238.496 99.833 C 238.590 99.833,238.667 99.942,238.667 100.075 C 238.667 100.208,238.768 100.377,238.892 100.450 C 239.016 100.523,239.148 100.670,239.184 100.776 C 239.537 101.809,244.671 106.500,245.447 106.500 C 245.568 106.500,245.667 106.558,245.667 106.628 C 245.667 106.699,246.023 106.943,246.458 107.170 C 246.894 107.397,247.287 107.625,247.333 107.676 C 247.379 107.727,247.679 107.867,248.000 107.987 C 248.321 108.107,248.820 108.309,249.109 108.436 C 249.397 108.563,249.754 108.667,249.900 108.667 C 250.047 108.667,250.167 108.735,250.167 108.819 C 250.167 108.902,250.485 109.019,250.875 109.078 C 251.265 109.137,251.733 109.253,251.917 109.335 C 252.328 109.520,253.932 109.796,255.917 110.023 C 257.598 110.216,263.603 110.090,263.896 109.857 C 263.999 109.774,264.589 109.655,265.207 109.590 C 265.824 109.526,266.368 109.412,266.415 109.336 C 266.462 109.260,266.875 109.146,267.334 109.083 C 267.792 109.020,268.167 108.901,268.167 108.818 C 268.167 108.735,268.298 108.664,268.458 108.661 C 268.619 108.658,269.050 108.510,269.417 108.333 C 269.783 108.156,270.150 108.009,270.232 108.006 C 270.463 107.997,271.910 107.265,271.972 107.125 C 272.003 107.056,272.116 107.000,272.224 107.000 C 272.450 107.000,274.556 105.661,274.639 105.465 C 274.669 105.392,274.770 105.333,274.862 105.333 C 275.150 105.333,278.159 102.531,278.173 102.250 C 278.177 102.158,278.403 101.899,278.674 101.674 C 278.945 101.450,279.167 101.168,279.167 101.049 C 279.167 100.931,279.237 100.833,279.322 100.833 C 279.408 100.833,279.525 100.684,279.583 100.501 C 279.641 100.318,279.777 100.072,279.886 99.954 C 280.163 99.653,280.670 98.806,280.780 98.458 C 280.831 98.298,280.938 98.167,281.019 98.167 C 281.100 98.167,281.167 98.072,281.167 97.956 C 281.167 97.840,281.317 97.465,281.500 97.123 C 281.683 96.781,281.836 96.407,281.839 96.292 C 281.842 96.177,281.990 95.783,282.167 95.417 C 282.344 95.050,282.491 94.586,282.494 94.385 C 282.497 94.184,282.571 93.976,282.657 93.923 C 282.743 93.869,282.865 93.471,282.928 93.038 C 282.991 92.605,283.099 92.175,283.168 92.083 C 283.608 91.500,283.667 87.746,283.667 60.263 L 283.667 31.833 270.208 31.857 C 258.191 31.877,256.580 31.911,255.167 32.171 " stroke="none" fill="#d48c0c" fill-rule="evenodd"></path></g></svg>
